<svg id="Слой_1" data-name="Слой 1" xmlns="http://www.w3.org/2000/svg" viewBox="0 0 100 100"><defs><style>.cls-1{fill:#fff;}</style></defs><title>burger</title><path class="cls-1" d="M86,17.75H14a1.92,1.92,0,0,0-1.92,1.92V32.33A1.92,1.92,0,0,0,14,34.25H86a1.92,1.92,0,0,0,1.92-1.92V19.67A1.92,1.92,0,0,0,86,17.75ZM24.33,28.21A2.21,2.21,0,1,1,26.54,26,2.21,2.21,0,0,1,24.33,28.21Zm51.33,0A2.21,2.21,0,1,1,77.87,26,2.21,2.21,0,0,1,75.67,28.21Z"/><path class="cls-1" d="M86,41.75H14a1.92,1.92,0,0,0-1.92,1.92V56.33A1.92,1.92,0,0,0,14,58.25H86a1.92,1.92,0,0,0,1.92-1.92V43.67A1.92,1.92,0,0,0,86,41.75ZM24.33,52.21A2.21,2.21,0,1,1,26.54,50,2.21,2.21,0,0,1,24.33,52.21Zm51.33,0A2.21,2.21,0,1,1,77.87,50,2.21,2.21,0,0,1,75.67,52.21Z"/><path class="cls-1" d="M86,65.75H14a1.92,1.92,0,0,0-1.92,1.92V80.33A1.92,1.92,0,0,0,14,82.25H86a1.92,1.92,0,0,0,1.92-1.92V67.67A1.92,1.92,0,0,0,86,65.75ZM24.33,76.21A2.21,2.21,0,1,1,26.54,74,2.21,2.21,0,0,1,24.33,76.21Zm51.33,0A2.21,2.21,0,1,1,77.87,74,2.21,2.21,0,0,1,75.67,76.21Z"/></svg>