<svg id="Слой_1" data-name="Слой 1" xmlns="http://www.w3.org/2000/svg" viewBox="0 0 100 100"><defs><style>.cls-1,.cls-2{fill:#fff;}.cls-1{stroke:#fff;stroke-miterlimit:10;}</style></defs><title>cartDone</title><path class="cls-1" d="M28.28,32.29c1.94,0,3.53.11,5.1,0s2.2.39,2.65,1.95a22.5,22.5,0,0,0,15.2,16A23.11,23.11,0,0,0,80.71,34.41c.61-2.09,2.77-2.92,5.84-2.07,2,.55,2.11,2.06,1.66,3.82-2,7.87-4,15.75-6,23.71h-47Z"/><path class="cls-1" d="M80.31,66.77c-.68,4.55-1.07,4.9-5.17,4.9H32.29c-3.22,0-3.51-.25-4.32-3.42-3.16-12.43-6.33-24.86-9.44-37.3a2.87,2.87,0,0,0-2.62-2.58c-2.84-.45-5.65-1.17-8.46-1.79-1.6-.35-2.71-1.21-2.35-3s1.77-2.12,3.35-1.79c3.86.8,7.72,1.67,11.58,2.46,1.69.35,2.25,1.52,2.63,3,3.06,12.22,6.22,24.42,9.2,36.66.52,2.13,1.3,2.9,3.6,2.88,14-.12,28-.06,41.93-.06Z"/><path class="cls-1" d="M76.41,22.8c3.07,7.63-.91,17.54-8.8,22A19,19,0,0,1,45,14.65c6.29-6.18,16.89-7.33,23.33-2.38l-2,2.68c-2.42-.57-4.65-1.42-6.93-1.59A14.75,14.75,0,0,0,43.5,27.43,15,15,0,0,0,58.2,43.08c8.27.14,14.88-6.58,15.18-15,.07-1.89,1.46-3.72,2.24-5.58Z"/><path class="cls-1" d="M58.31,30.25l13.22-17.2c.37-.48.71-1,1.13-1.43,1.32-1.41,2.87-1.78,4.46-.55s1.57,2.82.58,4.46a12.82,12.82,0,0,1-.8,1.11Q69.34,26.5,61.78,36.36c-2.46,3.2-4.28,3.19-6.87,0-2.06-2.53-4.15-5-6.17-7.62-1.5-1.91-1.38-3.8.21-5s3.28-.81,4.77,1S56.69,28.29,58.31,30.25Z"/><path class="cls-2" d="M36.35,92.08a8.82,8.82,0,0,1-8.84-8.59A8.43,8.43,0,0,1,30,77.41a8.93,8.93,0,0,1,6.42-2.67,8.6,8.6,0,0,1,8.7,8.7,8.74,8.74,0,0,1-8.73,8.64Zm0-14.16a5.6,5.6,0,0,0-4,1.64,5.36,5.36,0,0,0-1.54,3.87,5.59,5.59,0,0,0,5.44,5.52h.17a5.61,5.61,0,0,0,4-9.42,5.62,5.62,0,0,0-4-1.61l-.05-.25Z"/><path class="cls-2" d="M36.39,75h.07a8.35,8.35,0,0,1,8.38,8.45,8.47,8.47,0,0,1-8.48,8.39h0a8.61,8.61,0,0,1-8.59-8.35A8.51,8.51,0,0,1,36.39,75m0,14.21a5.73,5.73,0,0,0,5.78-5.72,5.57,5.57,0,0,0-5.77-5.81h-.05a5.69,5.69,0,0,0-5.81,5.76,5.87,5.87,0,0,0,5.68,5.76h.18m0-14.71h0a9.18,9.18,0,0,0-6.59,2.74,8.67,8.67,0,0,0-2.53,6.26,9,9,0,0,0,18.08-.05,8.83,8.83,0,0,0-8.88-8.95Zm0,14.21h-.16A5.4,5.4,0,0,1,31,83.42a5.11,5.11,0,0,1,1.47-3.69,5.35,5.35,0,0,1,3.85-1.57A5.41,5.41,0,0,1,40.2,79.7a5.36,5.36,0,0,1-3.85,9Z"/><path class="cls-2" d="M67.77,92.08a8.64,8.64,0,0,1-8.58-9,8.56,8.56,0,0,1,8.74-8.33h.2a8.65,8.65,0,0,1,6.13,2.71,8.5,8.5,0,0,1,2.37,6.14,8.7,8.7,0,0,1-8.73,8.5Zm.14-14.17a5.19,5.19,0,0,0-5.49,5.44,5.62,5.62,0,0,0,1.58,4,5.43,5.43,0,0,0,3.89,1.56,5.6,5.6,0,0,0,4-1.71A5.48,5.48,0,0,0,68,77.91l-.09-.25Z"/><path class="cls-2" d="M67.93,75h.2a8.43,8.43,0,0,1-.23,16.86h-.13A8.43,8.43,0,0,1,67.93,75m0,14.22h0a5.86,5.86,0,0,0,5.81-5.91A5.7,5.7,0,0,0,68,77.66h-.09a5.41,5.41,0,0,0-5.74,5.69,5.62,5.62,0,0,0,5.72,5.85m0-14.72h0a8.81,8.81,0,0,0-9,8.57,8.89,8.89,0,0,0,8.83,9.28h.13a9,9,0,0,0,9-8.75,8.75,8.75,0,0,0-2.44-6.32,8.9,8.9,0,0,0-6.3-2.79Zm0,14.72v-.5a5.18,5.18,0,0,1-3.71-1.49,5.37,5.37,0,0,1-1.51-3.86,4.9,4.9,0,0,1,5.24-5.19H68a5.22,5.22,0,0,1,3.74,8.9,5.33,5.33,0,0,1-3.81,1.64l0,.5Z"/></svg>