<svg id="Слой_1" data-name="Слой 1" xmlns="http://www.w3.org/2000/svg" viewBox="0 0 100 100"><defs><style>.cls-1{fill:#fff;}</style></defs><title>cart</title><path class="cls-1" d="M64,65.51H42.27l-15.5,0c-4.43,0-6.66-1.6-8.21-5.85Q14.63,48.81,10.72,38c-.83-2.31-.82-4.12.05-5.36s2.52-1.86,4.94-1.87l11.36,0H67.93c.2,0,.4,0,.6,0s.43,0,.64,0a2.24,2.24,0,0,1,.85.14,2.58,2.58,0,0,1,.39.2,1.55,1.55,0,0,1,.71,1.54,1.43,1.43,0,0,1-1,1.21,3.73,3.73,0,0,1-1,.11l-.71,0-.68,0H16.08c-1.58,0-2.38.19-2.69.62s-.2,1.22.32,2.65q1.45,4,2.92,8c1.6,4.37,3.26,8.88,4.83,13.35,1,2.76,2.69,3.93,5.75,3.93h.11c4.63,0,9.69-.06,15.91-.06H63.72a4.57,4.57,0,0,1,1.15.12c.46.12,1.37.83,1.27,1.31a2.56,2.56,0,0,1-1.19,1.55A2,2,0,0,1,64,65.51Z"/><path class="cls-1" d="M69.17,30.94a2,2,0,0,1,.76.12,2.36,2.36,0,0,1,.35.18A1.27,1.27,0,0,1,70,33.53h0a3.5,3.5,0,0,1-.91.1c-.46,0-.93-.05-1.39-.05H16.08c-3.17,0-3.66.7-2.61,3.61C16,44.32,18.7,51.41,21.22,58.55c1,2.95,2.91,4.1,6,4.1h.11q7.94-.07,15.88-.06l19.31,0h0l1.21,0a4.43,4.43,0,0,1,1.09.11c.45.11,1.14.75,1.09,1a2.3,2.3,0,0,1-1.06,1.38,1.74,1.74,0,0,1-.83.16l-.87,0H42.5l-15.72,0c-4.36,0-6.47-1.56-8-5.69Q14.86,48.73,11,37.91C9.35,33.45,11,31,15.72,31L27,31h41c.4,0,.83-.06,1.24-.06m0-.5h0c-.22,0-.44,0-.66,0l-.58,0H27l-11.26,0c-2.51,0-4.24.67-5.15,2s-.94,3.19-.08,5.59c2.42,6.69,5,13.77,7.84,21.63,1.59,4.37,3.88,6,8.44,6l15.72,0H64a2.22,2.22,0,0,0,1.07-.22,2.8,2.8,0,0,0,1.31-1.72c.14-.67-.89-1.46-1.45-1.61a4.81,4.81,0,0,0-1.21-.13H43.19c-6.22,0-11.27,0-15.89.06H27.2c-3,0-4.57-1.09-5.51-3.77-1.57-4.47-3.23-9-4.83-13.36q-1.46-4-2.92-8c-.48-1.33-.59-2.08-.35-2.42s1.57-.51,2.48-.51H67.71l.67,0,.72,0a3.94,3.94,0,0,0,1-.12,1.68,1.68,0,0,0,1.24-1.42,1.79,1.79,0,0,0-.83-1.78,2.83,2.83,0,0,0-.42-.21,2.48,2.48,0,0,0-.95-.16Z"/><path class="cls-1" d="M41.53,71.23H18.89A5.12,5.12,0,0,1,17.24,71a1.84,1.84,0,0,1-1-1.49,1.81,1.81,0,0,1,1.25-1.29,6.2,6.2,0,0,1,1.35-.12h44c3.79,0,5.27-1.29,5.9-5.12l1-6.21c1.91-11.66,3.88-23.73,6-35.56a9.9,9.9,0,0,1,3.38-5.48A40.36,40.36,0,0,1,86.32,12l1.52-.68a1.28,1.28,0,0,1,.48-.11h0a1.52,1.52,0,0,1,1.41.87,1.49,1.49,0,0,1-.16,1.59,1.3,1.3,0,0,1-.37.33,52.15,52.15,0,0,1-6.71,3.38c-2.39,1-3.62,2.67-4.13,5.75C76.16,36.52,74,49.68,71.51,64.26c-.8,4.78-3.28,6.93-8,7q-4.43,0-8.86,0Z"/><path class="cls-1" d="M88.39,11.42a1.29,1.29,0,0,1,1,2.06,1.07,1.07,0,0,1-.3.27,51.9,51.9,0,0,1-6.68,3.36c-2.78,1.11-3.83,3.2-4.28,5.94q-3.38,20.59-6.85,41.17c-.78,4.63-3.16,6.72-7.8,6.75q-4.45,0-8.9,0H18.88a4.85,4.85,0,0,1-1.56-.19,1.6,1.6,0,0,1-.88-1.24,1.58,1.58,0,0,1,1-1.05,6.13,6.13,0,0,1,1.3-.11l1.28,0H62.79c4,0,5.51-1.43,6.15-5.33,2.28-13.93,4.52-27.87,7-41.77A9.65,9.65,0,0,1,79.24,16a50.43,50.43,0,0,1,8.7-4.47,1.05,1.05,0,0,1,.39-.09h.06m0-.5h-.08a1.55,1.55,0,0,0-.58.13l-1.52.68a40.52,40.52,0,0,0-7.27,3.84,10.17,10.17,0,0,0-3.48,5.64c-2.13,11.86-4.1,23.95-6,35.64l-1,6.13c-.61,3.71-2,4.9-5.65,4.91h-44a6.66,6.66,0,0,0-1.41.13,2,2,0,0,0-1.44,1.52,2.08,2.08,0,0,0,1.21,1.74,5.32,5.32,0,0,0,1.72.22H54.56q4.45,0,8.91,0c4.84,0,7.47-2.31,8.29-7.16,2.35-14,4.64-27.68,6.85-41.17.49-3,1.68-4.65,4-5.56a52.47,52.47,0,0,0,6.75-3.39,1.58,1.58,0,0,0,.44-.39,1.79,1.79,0,0,0-1.38-2.87Z"/><path class="cls-1" d="M60.58,89.93a8.74,8.74,0,0,1-8.73-8.64,8.58,8.58,0,0,1,8.63-8.7h0A9,9,0,0,1,67,75.26a8.43,8.43,0,0,1,2.46,6.08,8.82,8.82,0,0,1-8.84,8.59Zm0-14.16a5.62,5.62,0,0,0-4,1.61,5.61,5.61,0,0,0,4,9.42h.17a5.59,5.59,0,0,0,5.44-5.52,5.36,5.36,0,0,0-1.54-3.87,5.6,5.6,0,0,0-4-1.64v-.25Z"/><path class="cls-1" d="M60.55,72.85a8.5,8.5,0,0,1,8.63,8.49,8.61,8.61,0,0,1-8.59,8.35h0a8.47,8.47,0,0,1-8.48-8.39,8.35,8.35,0,0,1,8.38-8.45h.07m0,14.21h.18a5.87,5.87,0,0,0,5.68-5.76,5.69,5.69,0,0,0-5.81-5.76h-.05a5.57,5.57,0,0,0-5.77,5.81,5.73,5.73,0,0,0,5.78,5.72m0-14.71h-.08a8.83,8.83,0,0,0-8.88,8.95,9,9,0,0,0,18.08.05,8.67,8.67,0,0,0-2.53-6.26,9.18,9.18,0,0,0-6.59-2.74Zm0,14.21a5.36,5.36,0,0,1-3.85-9A5.37,5.37,0,0,1,60.58,76h0a5.38,5.38,0,0,1,3.89,1.57,5.11,5.11,0,0,1,1.47,3.69,5.4,5.4,0,0,1-5.2,5.27Z"/><path class="cls-1" d="M29,89.94a8.7,8.7,0,0,1-8.73-8.5,8.51,8.51,0,0,1,2.37-6.14,8.66,8.66,0,0,1,6.12-2.71H29a8.56,8.56,0,0,1,8.74,8.33,8.64,8.64,0,0,1-8.58,9Zm-.1-14.17A5.47,5.47,0,0,0,25,85.09a5.57,5.57,0,0,0,4,1.71h0a5.45,5.45,0,0,0,3.92-1.56,5.62,5.62,0,0,0,1.58-4A5.19,5.19,0,0,0,29,75.77v-.25Z"/><path class="cls-1" d="M29,72.83a8.43,8.43,0,0,1,.16,16.86H29a8.43,8.43,0,0,1-.23-16.86H29m0,14.22a5.62,5.62,0,0,0,5.72-5.85A5.41,5.41,0,0,0,29,75.52h-.09a5.7,5.7,0,0,0-5.74,5.62A5.86,5.86,0,0,0,29,87.05h0m0-14.72h-.21a8.9,8.9,0,0,0-6.3,2.79,8.75,8.75,0,0,0-2.44,6.32,9,9,0,0,0,9,8.75h.13A8.89,8.89,0,0,0,38,80.9a8.8,8.8,0,0,0-9-8.57Zm0,14.72,0-.5a5.33,5.33,0,0,1-3.81-1.64A5.22,5.22,0,0,1,28.94,76H29a4.9,4.9,0,0,1,5.24,5.19,5.37,5.37,0,0,1-1.51,3.86A5.18,5.18,0,0,1,29,86.55v.5Z"/></svg>