<svg width="100" height="100" viewBox="0 0 100 100" fill="none" xmlns="http://www.w3.org/2000/svg">
<path d="M58.88 4.5C60.77 5.11 62.37 6.11 62.88 8.16C63.1104 9.58284 63.2474 11.0193 63.29 12.46H57.66V10.06H42.44V12.47H37.07C36.56 8.81 37.14 6.47 39.82 5.04C40.23 4.82 40.68 4.68 41.11 4.5H58.88Z" fill="white"/>
<path d="M50.0501 34.3299H75.1101C77.5501 34.3299 78.3601 35.3299 78.1101 37.7499C77.5901 43.9399 77.1101 50.1399 76.6101 56.3399C76.1101 62.5399 75.6101 68.8499 75.0801 75.1099C74.7001 79.8299 74.2801 84.5499 73.9601 89.2799C73.6801 93.3499 71.4701 95.4999 67.4201 95.4999H32.5401C28.6801 95.4999 26.4801 93.5999 26.1201 89.7599C25.6101 84.2499 25.2001 78.7599 24.7601 73.2099C24.2534 66.8966 23.7434 60.5799 23.2301 54.2599C22.7701 48.5333 22.3167 42.8066 21.8701 37.0799C21.7401 35.3099 22.7501 34.3199 24.6401 34.3199L50.0501 34.3299ZM47.3201 65.1499C47.3201 70.4233 47.3201 75.6933 47.3201 80.9599C47.3201 82.9599 47.3201 85.0499 47.3201 87.0899C47.3175 87.5511 47.4326 88.0053 47.6545 88.4095C47.8765 88.8138 48.1979 89.1547 48.5884 89.4C48.9789 89.6453 49.4256 89.7869 49.8861 89.8114C50.3466 89.8359 50.8057 89.7425 51.2201 89.5399C51.7571 89.259 52.1965 88.822 52.4803 88.2865C52.7641 87.751 52.8791 87.1421 52.8101 86.5399C52.8101 72.3266 52.8101 58.1133 52.8101 43.8999C52.8201 43.5655 52.8 43.2308 52.7501 42.8999C52.6864 42.4146 52.489 41.9564 52.18 41.5768C51.8709 41.1971 51.4624 40.9108 51.0001 40.7499C50.5672 40.589 50.1007 40.5404 49.644 40.6089C49.1873 40.6773 48.7555 40.8604 48.3888 41.1411C48.0222 41.4219 47.7327 41.791 47.5476 42.214C47.3624 42.6371 47.2876 43.1001 47.3301 43.5599C47.3167 50.7533 47.3134 57.9499 47.3201 65.1499ZM39.3201 86.9499C38.9701 81.4199 38.6301 76.0999 38.3201 70.7899C37.7667 61.7166 37.2134 52.6466 36.6601 43.5799C36.6425 43.1652 36.5685 42.7547 36.4401 42.3599C36.2208 41.7654 35.8016 41.2657 35.2542 40.9464C34.7069 40.6271 34.0655 40.5081 33.4401 40.6099C32.7846 40.6969 32.1856 41.0267 31.7615 41.534C31.3375 42.0414 31.1193 42.6894 31.1501 43.3499C31.2701 46.2499 31.4801 49.1399 31.6601 52.0399C32.3734 63.7133 33.0901 75.3799 33.8101 87.0399C33.816 87.4011 33.8929 87.7575 34.0366 88.0889C34.1803 88.4203 34.3878 88.7201 34.6473 88.9713C34.9069 89.2225 35.2133 89.4201 35.5492 89.5528C35.8852 89.6856 36.2439 89.7509 36.6051 89.7449C36.9662 89.739 37.3226 89.6621 37.654 89.5184C37.9854 89.3747 38.2852 89.1672 38.5364 88.9077C38.7876 88.6481 38.9852 88.3417 39.1179 88.0058C39.2507 87.6698 39.316 87.3111 39.3101 86.9499H39.3201ZM68.8601 44.7599C68.8601 44.3799 68.9201 43.9899 68.9301 43.6099C68.9645 43.2501 68.9277 42.8869 68.8216 42.5413C68.7156 42.1957 68.5425 41.8744 68.3121 41.5957C68.0818 41.3171 67.7987 41.0866 67.4792 40.9174C67.1597 40.7483 66.81 40.6438 66.4501 40.6099C66.0767 40.5666 65.6983 40.602 65.3394 40.7138C64.9806 40.8256 64.6491 41.0114 64.3664 41.2592C64.0838 41.507 63.8562 41.8113 63.6983 42.1525C63.5405 42.4936 63.4559 42.8641 63.4501 43.2399C63.3001 45.2399 63.2101 47.2399 63.0901 49.1799C62.3634 61.6266 61.6267 74.0866 60.8801 86.5599C60.8104 86.946 60.8235 87.3424 60.9186 87.7229C61.0136 88.1035 61.1884 88.4595 61.4313 88.7675C61.6742 89.0754 61.9798 89.3283 62.3278 89.5093C62.6758 89.6903 63.0582 89.7953 63.4499 89.8174C63.8415 89.8395 64.2333 89.7782 64.5995 89.6375C64.9656 89.4969 65.2977 89.28 65.5738 89.0014C65.8499 88.7227 66.0636 88.3886 66.2009 88.0212C66.3381 87.6538 66.3958 87.2613 66.3701 86.8699C66.7367 80.6033 67.1034 74.3399 67.4701 68.0799C67.9301 60.3066 68.3934 52.5333 68.8601 44.7599Z" fill="white"/>
<path d="M50 28.83C39.16 28.83 28.33 28.83 17.49 28.83C16.7087 28.799 15.9525 28.5458 15.31 28.1C14.9975 27.8612 14.7723 27.5262 14.6693 27.1466C14.5663 26.767 14.5911 26.3641 14.74 26C15.35 24.12 15.93 22.22 16.62 20.37C16.885 19.6154 17.3957 18.9716 18.0703 18.5418C18.7448 18.112 19.5441 17.9213 20.34 18H79.24C81.95 18 82.94 18.71 83.79 21.28C84.25 22.65 84.72 24.02 85.17 25.4C85.83 27.45 84.85 28.8 82.68 28.8L50 28.83Z" fill="white"/>
</svg>
