<svg id="Слой_1" data-name="Слой 1" xmlns="http://www.w3.org/2000/svg" viewBox="0 0 100 100"><defs><style>.cls-1{fill:#fff;stroke:#fff;stroke-miterlimit:10;}</style></defs><title>hidden</title><path class="cls-1" d="M10.25,48.83c1.06-3.32,3.22-6,5.32-8.67A46.33,46.33,0,0,1,34.09,25.72,39.5,39.5,0,0,1,65,25.33,1.13,1.13,0,0,0,66.42,25c3.78-3.83,7.6-7.62,11.4-11.43a2.76,2.76,0,0,1,3-.75,2.7,2.7,0,0,1,1.89,2.25,3,3,0,0,1-1,2.7q-4.54,4.52-9.06,9.05l-56,56A3.09,3.09,0,0,1,13.8,84a2.66,2.66,0,0,1-2.21-1.83,2.74,2.74,0,0,1,.58-2.89c.16-.17.33-.33.49-.5L23.2,68.22l.49-.52c-1.61-1.52-3.23-3-4.75-4.5A50.34,50.34,0,0,1,11.19,53a17.87,17.87,0,0,1-.94-2.27ZM33,58.41c1.31-1.31,2.55-2.59,3.83-3.83a.91.91,0,0,0,.27-1.08A12.1,12.1,0,0,1,36.7,48,13.24,13.24,0,0,1,52.39,36.63a3.34,3.34,0,0,0,3.72-1.27,36.24,36.24,0,0,1,2.56-2.57A19,19,0,0,0,33,58.41Z"/><path class="cls-1" d="M89.75,50.69c-1.1,3.36-3.28,6.08-5.42,8.78a46.08,46.08,0,0,1-20.22,15A39.53,39.53,0,0,1,34.61,74L34,73.77s-.07-.07-.13-.15c.13-.14.25-.3.39-.43,2.07-2.07,4.14-4.13,6.19-6.21a.72.72,0,0,1,1-.16A19.05,19.05,0,0,0,68.69,53.6a18.36,18.36,0,0,0-1.56-12.22.9.9,0,0,1,.19-1.25c2.69-2.65,5.35-5.33,8-8l.61-.58c1.55,1.42,3.14,2.79,4.63,4.26a50.85,50.85,0,0,1,8.15,10.61,19.34,19.34,0,0,1,1,2.41Z"/><path class="cls-1" d="M45.39,62.3,62.55,45.15A13.33,13.33,0,0,1,45.39,62.3Z"/></svg>