<?xml version="1.0" encoding="utf-8"?>
<!-- Generator: Adobe Illustrator 20.1.0, SVG Export Plug-In . SVG Version: 6.00 Build 0)  -->
<svg version="1.1" id="Слой_1" xmlns="http://www.w3.org/2000/svg" xmlns:xlink="http://www.w3.org/1999/xlink" x="0px" y="0px"
	 viewBox="0 0 60 60" style="enable-background:new 0 0 60 60;" xml:space="preserve">
<style type="text/css">
	.st0{fill:#FFFFFF;}
</style>
<g>
	<path class="st0" d="M42.5,20.6c-0.3-0.7-0.6-1.3-1.2-1.8c-0.6-0.6-1.1-0.9-1.8-1.2c-0.6-0.2-1.4-0.5-3-0.6
		c-1.7-0.1-2.2-0.1-6.5-0.1c-0.5,0-1,0-1.4,0v0c-3,0-3.6,0-5,0.1c-1.6,0.1-2.4,0.3-3,0.6c-0.7,0.3-1.3,0.6-1.8,1.2
		c-0.6,0.6-0.9,1.1-1.2,1.8c-0.2,0.6-0.5,1.4-0.6,3c-0.1,1.7-0.1,2.2-0.1,6.5s0,4.8,0.1,6.5c0.1,1.6,0.3,2.4,0.6,3
		c0.3,0.7,0.6,1.3,1.2,1.8c0.6,0.6,1.1,0.9,1.8,1.2c0.6,0.2,1.4,0.5,3,0.6c1.7,0.1,2.2,0.1,6.5,0.1c4.3,0,4.8,0,6.5-0.1
		c1.6-0.1,2.4-0.3,3-0.6c0.7-0.3,1.3-0.6,1.8-1.2c0.6-0.6,0.9-1.1,1.2-1.8c0.2-0.6,0.5-1.4,0.6-3c0.1-1.7,0.1-2.2,0.1-6.5
		c0-4.3,0-4.8-0.1-6.5C43,22,42.7,21.1,42.5,20.6z M30,38.2c-4.5,0-8.2-3.7-8.2-8.2c0-4.5,3.7-8.2,8.2-8.2c0,0,0,0,0,0h0
		c0,0,0,0,0,0c4.5,0,8.2,3.7,8.2,8.2C38.2,34.5,34.5,38.2,30,38.2z M38.5,23.4c-1.1,0-1.9-0.9-1.9-1.9c0-1.1,0.9-1.9,1.9-1.9v0
		c1.1,0,1.9,0.9,1.9,1.9S39.6,23.4,38.5,23.4z"/>
	<circle class="st0" cx="30" cy="30" r="5.3"/>
	<path class="st0" d="M30,0C13.4,0,0,13.4,0,30s13.4,30,30,30s30-13.4,30-30S46.6,0,30,0z M45.9,36.6c-0.1,1.7-0.4,2.9-0.7,3.9
		c-0.4,1.1-1,1.9-1.8,2.8c-0.9,0.9-1.8,1.4-2.8,1.8c-1,0.4-2.2,0.7-3.9,0.7C34.9,46,34.3,46,30,46c-4.3,0-4.9,0-6.6-0.1
		c-1.7-0.1-2.9-0.3-3.9-0.7c-1.1-0.4-1.9-1-2.8-1.8c-0.9-0.9-1.4-1.8-1.8-2.8c-0.4-1-0.7-2.2-0.7-3.9C14,34.9,14,34.3,14,30
		c0-4.3,0-4.9,0.1-6.6c0.1-1.7,0.3-2.9,0.7-3.9c0.4-1.1,1-1.9,1.8-2.8c0.9-0.9,1.8-1.4,2.8-1.8c1-0.4,2.2-0.7,3.9-0.7
		C25.1,14,25.7,14,30,14c0,0,0,0,0,0h0c0,0,0,0,0,0c4.3,0,4.9,0,6.6,0.1c1.7,0.1,2.9,0.3,3.9,0.7c1.1,0.4,1.9,1,2.8,1.8
		c0.9,0.9,1.4,1.8,1.8,2.8c0.4,1,0.7,2.2,0.7,3.9C46,25.1,46,25.7,46,30C46,34.3,46,34.9,45.9,36.6z"/>
</g>
</svg>
