<svg id="Слой_1" data-name="Слой 1" xmlns="http://www.w3.org/2000/svg" viewBox="0 0 100 100"><defs><style>.cls-1{fill:#fff;stroke:#fff;stroke-miterlimit:10;}</style></defs><title>list</title><path class="cls-1" d="M33,14.19c1.51-5.46,3.08-6.66,8.47-6.68,5.1,0,10.2,0,15.29,0,5.9,0,7.26,1,9,6.68,3.21,0,6.5,0,9.78,0S80,15.42,80,18.64Q80,53.34,80,88c0,3.14-1.34,4.45-4.52,4.45q-26.2,0-52.39,0c-3.14,0-4.44-1.34-4.45-4.53q0-34.69,0-69.38c0-3.06,1.23-4.3,4.27-4.37C26.22,14.13,29.52,14.19,33,14.19Zm0,2.57c-3,0-5.8.16-8.61,0-2.61-.19-3.17.93-3.16,3.3q.1,33.26,0,66.53c0,2.64.85,3.34,3.41,3.32,16.32-.1,32.65,0,49-.05,3.88,0,3.89,0,3.9-3.85q0-32.7,0-65.4a4.71,4.71,0,0,0-.07-2c-.36-.71-1.06-1.72-1.66-1.75-3.37-.17-6.75-.08-10-.08-1.63,5.26-3.25,6.46-8.45,6.46H41.68C36.21,23.23,34.65,22.11,33,16.76Zm16.38,3.77c3.11,0,6.22.06,9.33,0,2.94-.08,4.06-1.49,4.09-4.88,0-4-.92-5.35-4.09-5.39q-9.33-.12-18.66,0c-3.17,0-4.11,1.4-4.08,5.39,0,3.38,1.16,4.81,4.08,4.88C43.11,20.59,46.23,20.53,49.34,20.53Z"/><path class="cls-1" d="M25.84,71.94c.07-6.93-.84-6,6-6,6.49,0,5.77-1,5.77,5.91s.71,5.8-5.79,5.91h-.28C25.58,77.62,25.85,78.93,25.84,71.94Zm9,3V68.83H28.64v6.08Z"/><path class="cls-1" d="M31.55,59.18c-6.17-.13-5.77,1.2-5.7-5.69S24.74,47.4,32,47.38c6.42,0,5.51-.42,5.55,5.61C37.64,59.18,37.62,59.18,31.55,59.18Zm-2.93-9v6.23h6.2V50.18Z"/><path class="cls-1" d="M25.88,34.95c0-7.24-.5-5.94,6-6,6.68,0,5.77-.79,5.77,5.87,0,6.25,1.06,6-5.79,5.92C24.75,40.7,26,41.15,25.88,34.95Zm2.73,2.94h6.31V31.73H28.61Z"/><path class="cls-1" d="M57.84,70.48c4.24,0,8.48-.06,12.72.06a1.21,1.21,0,0,1,.38.08A1.32,1.32,0,0,1,71,73a1,1,0,0,1-.34.07q-13.14.14-26.28,0A.91.91,0,0,1,44,73a1.32,1.32,0,0,1,.19-2.47,1.23,1.23,0,0,1,.32-.05c4.42-.11,8.85-.06,13.28-.06Z"/><path class="cls-1" d="M57.32,54.61c-4.24,0-8.48.06-12.72,0l-.22,0a1.26,1.26,0,0,1-.18-2.39,1.14,1.14,0,0,1,.41-.09q13-.15,26,0a1.07,1.07,0,0,1,.35.07,1.27,1.27,0,0,1,0,2.37,1.15,1.15,0,0,1-.35.07C66.18,54.66,61.75,54.6,57.32,54.61Z"/><path class="cls-1" d="M57.56,33.51c4.24,0,8.48-.06,12.71.06h.13A1.26,1.26,0,0,1,70.56,36l-.19,0q-12.85.15-25.7,0a1.34,1.34,0,0,1-.58-.16,1.26,1.26,0,0,1,.26-2.33l.22,0C48.9,33.45,53.23,33.51,57.56,33.51Z"/></svg>