<svg id="Слой_1" data-name="Слой 1" xmlns="http://www.w3.org/2000/svg" viewBox="0 0 100 100"><defs><style>.cls-1{fill:#fff;stroke:#fff;stroke-miterlimit:10;}</style></defs><title>show</title><path class="cls-1" d="M50.74,22.26C68.35,23,82.57,30.81,92.36,46.4a3.37,3.37,0,0,1,0,3.92c-8,13-19.49,20.87-34.49,23.45A49.23,49.23,0,0,1,7.54,50.12,3.23,3.23,0,0,1,7.6,46.5Q19.37,27.35,41.44,23.11a35.54,35.54,0,0,1,3.63-.52C46.74,22.45,48.41,22.39,50.74,22.26ZM50,30.46a17.93,17.93,0,1,0,18,17.94A17.94,17.94,0,0,0,50,30.46Z"/><path class="cls-1" d="M37.82,48.35A12.19,12.19,0,1,1,50,60.58,12.19,12.19,0,0,1,37.82,48.35Z"/></svg>